<svg width="33" height="32" viewBox="0 0 33 32" fill="none" xmlns="http://www.w3.org/2000/svg">
<g clip-path="url(#clip0_213_1056)">
<path d="M26.7531 13.3868C26.3053 11.1171 25.0833 9.07331 23.2959 7.60449C21.5085 6.13567 19.2666 5.33297 16.9531 5.3335C13.0998 5.3335 9.75313 7.52016 8.08646 10.7202C6.12677 10.9319 4.31447 11.8604 2.99778 13.3273C1.68109 14.7941 0.952896 16.6957 0.953125 18.6668C0.953125 23.0802 4.53979 26.6668 8.95312 26.6668H26.2865C29.9665 26.6668 32.9531 23.6802 32.9531 20.0002C32.9531 16.4802 30.2198 13.6268 26.7531 13.3868ZM23.6198 17.3335L16.9531 24.0002L10.2865 17.3335H14.2865V12.0002H19.6198V17.3335H23.6198Z" fill="#0C0C0C"/>
</g>
<defs>
<clipPath id="clip0_213_1056">
<rect width="32" height="32" fill="white" transform="translate(0.953125)"/>
</clipPath>
</defs>
</svg>
