<svg width="90" height="91" viewBox="0 0 90 91" fill="none" xmlns="http://www.w3.org/2000/svg">
<circle cx="45.0491" cy="45.8048" r="44.3497" stroke="#242A41"/>
<path d="M69.2295 31.725L47.7979 19.2788C47.1063 18.8801 46.3462 18.6727 45.5758 18.6727C44.8055 18.6727 44.0454 18.8801 43.3537 19.2788L21.9222 31.725C20.7681 32.3832 19.7952 33.4102 19.1149 34.6883C18.4347 35.9665 18.0745 37.4441 18.0758 38.9518V65.5917C18.0758 70.0478 21.1966 73.6727 25.0331 73.6727H66.1186C69.9551 73.6727 73.0758 70.0478 73.0758 65.5917V38.9518C73.0771 37.4441 72.717 35.9665 72.0367 34.6883C71.3564 33.4102 70.3835 32.3832 69.2295 31.725V31.725ZM45.1314 23.4088C45.2697 23.329 45.4218 23.2876 45.5758 23.2876C45.7299 23.2876 45.8819 23.329 46.0203 23.4088L66.8147 35.4813L45.6986 47.7471C45.5603 47.8268 45.4083 47.8683 45.2542 47.8683C45.1001 47.8683 44.9481 47.8268 44.8098 47.7471L24.0117 35.6732L45.1314 23.4088Z" fill="#21272A"/>
</svg>
