<svg width="90" height="90" viewBox="0 0 90 90" fill="none" xmlns="http://www.w3.org/2000/svg">
<circle cx="44.8468" cy="44.8652" r="44.3497" stroke="#FEFBFB"/>
<path d="M69.0272 30.7855L47.5956 18.3393C46.904 17.9405 46.1439 17.7332 45.3735 17.7332C44.6032 17.7332 43.8431 17.9405 43.1514 18.3393L21.7199 30.7855C20.5658 31.4436 19.5929 32.4706 18.9126 33.7487C18.2324 35.0269 17.8722 36.5045 17.8735 38.0122V64.6521C17.8735 69.1082 20.9943 72.7332 24.8308 72.7332H65.9163C69.7528 72.7332 72.8735 69.1082 72.8735 64.6521V38.0122C72.8748 36.5045 72.5147 35.0269 71.8344 33.7487C71.1541 32.4706 70.1812 31.4436 69.0272 30.7855ZM44.9291 22.4692C45.0674 22.3895 45.2195 22.348 45.3735 22.348C45.5276 22.348 45.6796 22.3895 45.818 22.4692L66.6124 34.5417L45.4963 46.8075C45.358 46.8873 45.206 46.9287 45.0519 46.9287C44.8978 46.9287 44.7458 46.8873 44.6075 46.8075L23.8094 34.7336L44.9291 22.4692Z" fill="#FAFDFF"/>
</svg>
