<svg width="24" height="18" viewBox="0 0 24 18" fill="none" xmlns="http://www.w3.org/2000/svg">
<g clip-path="url(#clip0_155_7044)">
<path fill-rule="evenodd" clip-rule="evenodd" d="M0 0H24V18H0V0Z" fill="#229E45"/>
<path fill-rule="evenodd" clip-rule="evenodd" d="M12.0526 16.3499L23.3589 9.01115L11.9851 1.6499L0.641357 9.02615L12.0526 16.3499Z" fill="#F8E509"/>
<path fill-rule="evenodd" clip-rule="evenodd" d="M16.98 9C16.98 11.6362 14.8388 13.7737 12.1951 13.7737C11.2503 13.7723 10.3272 13.4907 9.54247 12.9647C8.75772 12.4387 8.14655 11.6918 7.78621 10.8185C7.42587 9.94514 7.33255 8.98459 7.51804 8.05823C7.70353 7.13188 8.15951 6.28132 8.82833 5.61408C9.49714 4.94683 10.3488 4.49286 11.2756 4.30955C12.2023 4.12624 13.1627 4.22182 14.0351 4.58421C14.9076 4.9466 15.6531 5.55953 16.1772 6.34552C16.7014 7.13151 16.9808 8.05526 16.98 9Z" fill="#2B49A3"/>
<path fill-rule="evenodd" clip-rule="evenodd" d="M10.6238 11.8613L10.4738 11.7751L10.3238 11.8501L10.3576 11.6813L10.2376 11.5538L10.4063 11.5351L10.4888 11.3851L10.5601 11.5426L10.7251 11.5726L10.6013 11.6851L10.6238 11.8613ZM13.8263 12.6713L13.6801 12.5851L13.5301 12.6601L13.5601 12.4913L13.4438 12.3676L13.6126 12.3488L13.6913 12.1951L13.7663 12.3526L13.9313 12.3826L13.8038 12.4988L13.8263 12.6713ZM12.4463 11.3738L12.3188 11.2988L12.1876 11.3663L12.2176 11.2201L12.1126 11.1113L12.2626 11.0963L12.3301 10.9613L12.3901 11.1001L12.5363 11.1263L12.4238 11.2276L12.4463 11.3738ZM15.6863 10.9088L15.5588 10.8338L15.4276 10.9013L15.4576 10.7551L15.3563 10.6501L15.5026 10.6351L15.5701 10.5038L15.6301 10.6388L15.7726 10.6651L15.6638 10.7626L15.6863 10.9088ZM12.3901 9.93759L12.2401 9.85509L12.0901 9.93009L12.1201 9.75759L12.0038 9.63384L12.1726 9.61509L12.2513 9.46134L12.3263 9.61884L12.4913 9.64884L12.3638 9.76884L12.3901 9.93759ZM8.44134 8.45634L8.29134 8.37384L8.14134 8.44884L8.17884 8.27634L8.05509 8.15259L8.22759 8.13384L8.30259 7.98009L8.37759 8.13759L8.54259 8.16759L8.41884 8.28384L8.44134 8.45634ZM8.91759 10.4288L8.76759 10.3426L8.61759 10.4176L8.65134 10.2488L8.53134 10.1251L8.70009 10.1026L8.77884 9.95259L8.85384 10.1101L9.01884 10.1401L8.89509 10.2563L8.91759 10.4288ZM13.8451 7.73259L13.7101 7.65759L13.5751 7.72509L13.6051 7.57509L13.5001 7.46259L13.6501 7.44384L13.7213 7.30884L13.7851 7.45134L13.9351 7.47759L13.8226 7.57884L13.8451 7.73259ZM13.5713 9.01509L13.4701 8.95509L13.3613 9.00759L13.3838 8.88759L13.3013 8.80134L13.4213 8.78634L13.4776 8.68134L13.5263 8.79384L13.6388 8.81259L13.5563 8.89509L13.5713 9.01509ZM8.22384 10.7851L8.12259 10.7288L8.02134 10.7776L8.04384 10.6651L7.96509 10.5826L8.07759 10.5676L8.13009 10.4663L8.17884 10.5713L8.29134 10.5938L8.20509 10.6688L8.22384 10.7851ZM15.7126 11.2426L15.6301 11.2013L15.5476 11.2388L15.5663 11.1526L15.5026 11.0926L15.5926 11.0813L15.6376 11.0063L15.6751 11.0813L15.7688 11.1001L15.6976 11.1563" fill="#FFFFEF"/>
<path fill-rule="evenodd" clip-rule="evenodd" d="M8.22384 10.7851L8.12259 10.7288L8.02134 10.7776L8.04384 10.6651L7.96509 10.5826L8.07759 10.5676L8.13009 10.4663L8.17884 10.5713L8.29134 10.5938L8.20509 10.6688" fill="#FFFFEF"/>
<path fill-rule="evenodd" clip-rule="evenodd" d="M8.22384 10.7851L8.12259 10.7288L8.02134 10.7776L8.04384 10.6651L7.96509 10.5826L8.07759 10.5676L8.13009 10.4663L8.17884 10.5713L8.29134 10.5938L8.20509 10.6688L8.22384 10.7851ZM9.79134 10.7813L9.69384 10.7288L9.59259 10.7776L9.61509 10.6651L9.53634 10.5826L9.64884 10.5676L9.70134 10.4663L9.75009 10.5713L9.86259 10.5901L9.77634 10.6688L9.79134 10.7813ZM9.59634 11.3063L9.49884 11.2501L9.39759 11.3026L9.42009 11.1901L9.34134 11.1038L9.45384 11.0888L9.50634 10.9876L9.55509 11.0926L9.66759 11.1151L9.58134 11.1901L9.59634 11.3063ZM12.8588 10.3576L12.7613 10.2976L12.6563 10.3501L12.6788 10.2376L12.6038 10.1513L12.7163 10.1401L12.7688 10.0388L12.8138 10.1438L12.9263 10.1626L12.8438 10.2413L12.8588 10.3576ZM11.9026 10.3538L11.8013 10.2976L11.7001 10.3501L11.7226 10.2376L11.6476 10.1513L11.7601 10.1401L11.8126 10.0351L11.8576 10.1438L11.9701 10.1626L11.8876 10.2413L11.9026 10.3538ZM9.30759 10.0238L9.24384 9.98634L9.18009 10.0163L9.19509 9.94509L9.14634 9.89259L9.21759 9.88509L9.24759 9.82134L9.27759 9.88884L9.34884 9.90009L9.29634 9.94884L9.30759 10.0238ZM15.5888 11.6513L15.4913 11.5951L15.3901 11.6476L15.4126 11.5351L15.3338 11.4488L15.4463 11.4338L15.4988 11.3326L15.5476 11.4376L15.6601 11.4601L15.5738 11.5351L15.5888 11.6513ZM14.7938 11.7601L14.7113 11.7076L14.6251 11.7526L14.6438 11.6551L14.5801 11.5876L14.6738 11.5763L14.7188 11.4901L14.7563 11.5801L14.8501 11.5951L14.7788 11.6626L14.7938 11.7601ZM15.1688 11.7488L15.0938 11.7038L15.0151 11.7413L15.0301 11.6551L14.9701 11.5913L15.0563 11.5801L15.0976 11.5051L15.1351 11.5801L15.2213 11.5988L15.1576 11.6588L15.1688 11.7488ZM16.2488 10.8038L16.1738 10.7663L16.0988 10.8038L16.1176 10.7176L16.0576 10.6538L16.1438 10.6426L16.1813 10.5676L16.2188 10.6463L16.2976 10.6613L16.2376 10.7213L16.2488 10.8038ZM14.7826 12.2888L14.6888 12.2363L14.5876 12.2813L14.6101 12.1763L14.5351 12.1013L14.6476 12.0901L14.6963 11.9963L14.7413 12.0938L14.8538 12.1126L14.7676 12.1838L14.7826 12.2888ZM14.7901 12.7163L14.7001 12.6638L14.6101 12.7126L14.6326 12.6076L14.5613 12.5326L14.6626 12.5176L14.7076 12.4238L14.7488 12.5213L14.8501 12.5401L14.7751 12.6151L14.7901 12.7163ZM14.0626 11.7488L13.9913 11.7038L13.9163 11.7413L13.9313 11.6588L13.8751 11.5951L13.9576 11.5876L13.9951 11.5126L14.0326 11.5876L14.1151 11.6026L14.0551 11.6626L14.0626 11.7488ZM13.3876 11.7488L13.3126 11.7038L13.2376 11.7413L13.2563 11.6588L13.1963 11.5951L13.2826 11.5876L13.3201 11.5126L13.3576 11.5876L13.4363 11.6026L13.3763 11.6626L13.3876 11.7488ZM12.2363 10.7401L12.1613 10.6988L12.0863 10.7363L12.1051 10.6501L12.0451 10.5901L12.1276 10.5788L12.1651 10.5038L12.2026 10.5788L12.2851 10.5976L12.2251 10.6538L12.2363 10.7401ZM12.3638 12.7913L12.3038 12.7576L12.2363 12.7913L12.2513 12.7163L12.2026 12.6638L12.2738 12.6563L12.3076 12.5926L12.3376 12.6601L12.4088 12.6713L12.3563 12.7201L12.3638 12.7913ZM10.6238 9.47259L10.4738 9.38634L10.3238 9.46134L10.3576 9.29259L10.2376 9.16884L10.4063 9.14634L10.4888 8.99634L10.5601 9.15384L10.7251 9.18384L10.6013 9.30009" fill="#FFFFEF"/>
<path fill-rule="evenodd" clip-rule="evenodd" d="M16.665 10.7174C16.758 10.4764 16.8307 10.228 16.8825 9.97493C14.34 7.74368 11.5088 6.59993 7.9313 6.83618C7.80155 7.08725 7.69486 7.34957 7.61255 7.61993C11.85 7.21493 14.9625 9.08993 16.665 10.7174Z" fill="white"/>
<path d="M15.5251 9.4651L15.6114 9.51385C15.5985 9.53931 15.5945 9.56836 15.6001 9.59635C15.6089 9.62348 15.6277 9.64627 15.6526 9.6601C15.6789 9.67885 15.7051 9.6901 15.7276 9.68635C15.7501 9.68635 15.7651 9.6751 15.7764 9.6601C15.7829 9.65014 15.7856 9.63814 15.7839 9.62635C15.7808 9.6125 15.7744 9.59961 15.7651 9.58885C15.7576 9.5776 15.7389 9.55135 15.7089 9.52135C15.678 9.48952 15.6549 9.45103 15.6414 9.40885C15.632 9.37692 15.6344 9.3427 15.6482 9.31241C15.662 9.28212 15.6862 9.25779 15.7164 9.24385C15.7436 9.23246 15.7738 9.22984 15.8026 9.23635C15.8379 9.24447 15.8711 9.25979 15.9001 9.28135C15.9526 9.31885 15.9864 9.35635 15.9976 9.40135C16.0028 9.42239 16.0035 9.4443 15.9996 9.46563C15.9957 9.48696 15.9874 9.50722 15.9751 9.5251L15.8851 9.46885C15.8964 9.44635 15.9001 9.42385 15.8926 9.4051C15.8889 9.38635 15.8739 9.3676 15.8476 9.3526C15.8284 9.3371 15.8048 9.32794 15.7801 9.32635C15.7733 9.32612 15.7666 9.32774 15.7606 9.33105C15.7547 9.33435 15.7498 9.33921 15.7464 9.3451C15.7389 9.35635 15.7389 9.3676 15.7426 9.3826C15.7464 9.3976 15.7651 9.4276 15.8026 9.4651C15.8401 9.5026 15.8626 9.53635 15.8776 9.55885C15.891 9.58342 15.8971 9.61133 15.8951 9.63925C15.8931 9.66716 15.8831 9.69392 15.8664 9.71635C15.8488 9.74184 15.824 9.76145 15.7951 9.7726C15.767 9.78555 15.7356 9.78947 15.7051 9.78385C15.6714 9.77635 15.6376 9.76135 15.6001 9.7351C15.5439 9.6976 15.5101 9.65635 15.4989 9.61135C15.4866 9.56032 15.4947 9.50654 15.5214 9.46135L15.5251 9.4651ZM15.0901 9.1801L15.1839 9.22885C15.1723 9.25475 15.1696 9.28378 15.1764 9.31135C15.186 9.33709 15.2046 9.35843 15.2289 9.37135C15.2589 9.3901 15.2814 9.3976 15.3039 9.39385C15.3264 9.39385 15.3414 9.3826 15.3526 9.36385C15.3583 9.35493 15.3609 9.3444 15.3601 9.33385C15.3601 9.3226 15.3526 9.3076 15.3414 9.29635C15.3222 9.27316 15.3021 9.25064 15.2814 9.22885C15.2401 9.1876 15.2139 9.15385 15.2064 9.12385C15.2002 9.10455 15.1984 9.08414 15.201 9.06406C15.2036 9.04398 15.2105 9.02471 15.2214 9.0076C15.2356 8.98446 15.2565 8.96616 15.2814 8.9551C15.3071 8.94322 15.3359 8.9393 15.3639 8.94385C15.3986 8.94969 15.4317 8.96244 15.4614 8.98135C15.5176 9.01885 15.5514 9.05635 15.5626 9.0976C15.5695 9.11868 15.5716 9.14098 15.5691 9.16299C15.5665 9.18499 15.5592 9.20618 15.5476 9.2251L15.4539 9.1726C15.4651 9.14635 15.4689 9.1276 15.4614 9.10885C15.4539 9.0901 15.4389 9.07135 15.4126 9.05635C15.3919 9.04146 15.3669 9.03357 15.3414 9.03385C15.3352 9.03426 15.3292 9.03619 15.324 9.03946C15.3188 9.04273 15.3144 9.04724 15.3114 9.0526C15.3039 9.06385 15.3039 9.0751 15.3076 9.0901C15.3114 9.1051 15.3339 9.1351 15.3714 9.1726C15.4089 9.2101 15.4351 9.2401 15.4464 9.2626C15.4614 9.28611 15.4694 9.31344 15.4694 9.34135C15.4694 9.36926 15.4614 9.39658 15.4464 9.4201C15.4302 9.44626 15.4067 9.46712 15.3789 9.4801C15.3507 9.49305 15.3193 9.49697 15.2889 9.49135C15.2503 9.48482 15.2133 9.47081 15.1801 9.4501C15.1316 9.42426 15.0943 9.38157 15.0751 9.3301C15.0606 9.28003 15.066 9.2263 15.0901 9.1801ZM14.5576 9.0376L14.8314 8.5876L15.1614 8.79385L15.1164 8.86885L14.8764 8.71885L14.8164 8.8201L15.0414 8.95885L14.9926 9.03385L14.7676 8.8951L14.6926 9.01885L14.9439 9.16885L14.8989 9.24385L14.5614 9.0376H14.5576ZM13.7814 8.4001L13.8226 8.3251L14.0251 8.42635L13.9314 8.61385C13.9014 8.62135 13.8639 8.6251 13.8189 8.62135C13.7757 8.61658 13.7337 8.60387 13.6951 8.58385C13.6497 8.56174 13.611 8.52812 13.5826 8.48635C13.5568 8.44754 13.5437 8.40168 13.5451 8.3551C13.547 8.30662 13.5598 8.25919 13.5826 8.21635C13.6051 8.17125 13.6387 8.13256 13.6801 8.10385C13.7198 8.07644 13.7669 8.06202 13.8151 8.0626C13.8526 8.0626 13.8901 8.07385 13.9351 8.1001C13.9951 8.12635 14.0326 8.16385 14.0514 8.2051C14.0709 8.24605 14.0749 8.29268 14.0626 8.33635L13.9614 8.30635C13.9676 8.28123 13.9649 8.25474 13.9539 8.23135C13.9426 8.20885 13.9239 8.19385 13.8939 8.17885C13.8764 8.16887 13.857 8.1627 13.8369 8.16077C13.8169 8.15883 13.7967 8.16116 13.7776 8.1676C13.7401 8.17885 13.7064 8.2126 13.6801 8.2651C13.6539 8.3176 13.6426 8.36635 13.6539 8.4076C13.659 8.42716 13.6684 8.44535 13.6814 8.4609C13.6944 8.47645 13.7106 8.48897 13.7289 8.4976C13.7476 8.50885 13.7701 8.51635 13.7926 8.51635C13.815 8.51974 13.8377 8.51974 13.8601 8.51635L13.8901 8.45635L13.7814 8.4001ZM10.3989 7.56385L10.4739 7.03885L10.6314 7.0651L10.6726 7.4326L10.8189 7.0951L10.9764 7.1176L10.9014 7.6351L10.8001 7.6201L10.8639 7.21135L10.6989 7.6051L10.5976 7.5901L10.5564 7.16635L10.4964 7.57885L10.3989 7.56385ZM9.87012 7.5001L9.91887 6.9751L10.3051 7.0126L10.2976 7.1026L10.0164 7.07635L10.0051 7.18885L10.2676 7.2151L10.2564 7.3051L9.99387 7.27885L9.98262 7.42135L10.2751 7.4476L10.2676 7.5376L9.87012 7.5001Z" fill="#309E3A"/>
<path d="M8.11881 7.17381C8.11881 7.11756 8.13006 7.07631 8.14506 7.03881C8.15821 7.01214 8.17598 6.98801 8.19756 6.96756C8.2168 6.94816 8.23976 6.93285 8.26506 6.92256C8.30256 6.91131 8.34006 6.90381 8.37756 6.90381C8.45631 6.90381 8.51631 6.93381 8.56506 6.97881C8.58827 7.00747 8.60553 7.04048 8.61583 7.07589C8.62613 7.11131 8.62927 7.14842 8.62506 7.18506C8.62506 7.26756 8.59881 7.33506 8.55006 7.38381C8.52501 7.40696 8.49538 7.4246 8.46308 7.43558C8.43078 7.44657 8.39654 7.45064 8.36256 7.44756C8.32904 7.4479 8.29581 7.44143 8.26486 7.42853C8.23392 7.41564 8.20592 7.3966 8.18256 7.37256C8.1359 7.31733 8.11298 7.24588 8.11881 7.17381Z" fill="#309E3A"/>
<path d="M8.22754 7.17372C8.22754 7.22997 8.23879 7.27497 8.26504 7.30872C8.29129 7.33872 8.32504 7.35747 8.37004 7.35747C8.38951 7.35883 8.40903 7.35584 8.4272 7.3487C8.44536 7.34157 8.46171 7.33047 8.47504 7.31622C8.50129 7.28622 8.51254 7.24122 8.51629 7.17747C8.51629 7.11747 8.50879 7.07247 8.47879 7.04247C8.46657 7.02736 8.45116 7.01514 8.43365 7.00671C8.41614 6.99828 8.39697 6.99384 8.37754 6.99372C8.35781 6.99309 8.33819 6.99679 8.32005 7.00457C8.3019 7.01234 8.28569 7.024 8.27254 7.03872C8.24254 7.06872 8.23129 7.11372 8.22754 7.17372Z" fill="#F7FFFF"/>
<path d="M8.73755 7.4437L8.74505 6.9187H8.97005C9.0263 6.9187 9.0638 6.9262 9.09005 6.93745C9.1163 6.94495 9.13505 6.9637 9.15005 6.9862C9.16505 7.0087 9.17255 7.0387 9.17255 7.07245C9.17284 7.10853 9.15944 7.14337 9.13505 7.16995C9.10733 7.19592 9.07165 7.21177 9.0338 7.21495L9.09005 7.25995C9.10505 7.27495 9.1238 7.30495 9.1463 7.3462L9.21005 7.4512H9.08255L9.00755 7.3312L8.95505 7.2562C8.94596 7.24588 8.93432 7.23813 8.9213 7.2337C8.90424 7.22873 8.88657 7.2262 8.8688 7.2262H8.8463V7.4437H8.73755Z" fill="#309E3A"/>
<path d="M8.8501 7.14379H8.9251C8.9776 7.14379 9.01135 7.14379 9.0226 7.13629C9.03385 7.13629 9.0451 7.12504 9.0526 7.11754C9.0601 7.11004 9.06385 7.09129 9.06385 7.08004C9.06385 7.05754 9.0601 7.04254 9.04885 7.03504C9.04135 7.02379 9.02635 7.01629 9.01135 7.01254H8.93635L8.8501 7.00879V7.14004V7.14379Z" fill="white"/>
<path d="M9.33753 6.94507L9.53253 6.95632C9.57378 6.95632 9.60753 6.96007 9.63003 6.96757C9.65922 6.97816 9.68509 6.99627 9.70503 7.02007C9.72663 7.04629 9.74202 7.07706 9.75003 7.11007C9.76128 7.14382 9.76503 7.18507 9.76128 7.23382C9.76124 7.27209 9.75491 7.3101 9.74253 7.34632C9.72753 7.38382 9.70503 7.41382 9.67878 7.43632C9.65693 7.45432 9.63129 7.46714 9.60378 7.47382C9.58128 7.48132 9.54753 7.48132 9.51003 7.48132L9.31128 7.47007L9.33753 6.94507Z" fill="#309E3A"/>
<path d="M9.43867 7.03882L9.41992 7.38757H9.56242C9.58117 7.38757 9.59617 7.38007 9.60742 7.36882C9.61867 7.35757 9.62992 7.34257 9.63742 7.32007C9.64492 7.29757 9.65242 7.26382 9.65242 7.22257L9.64867 7.12882C9.64332 7.10904 9.63299 7.09097 9.61867 7.07632C9.60622 7.06379 9.5907 7.05474 9.57367 7.05007C9.54531 7.04376 9.51645 7.03999 9.48742 7.03882H9.43867Z" fill="white"/>
<path d="M11.9099 7.88256L12.0337 7.37256L12.1987 7.41006L12.3187 7.44756C12.3449 7.46256 12.3674 7.48506 12.3787 7.51881C12.3937 7.54881 12.3937 7.58256 12.3862 7.62381C12.3787 7.65381 12.3674 7.68006 12.3487 7.69881C12.3349 7.71528 12.3177 7.72851 12.2983 7.73759C12.2788 7.74666 12.2576 7.75134 12.2362 7.75131C12.2099 7.75131 12.1724 7.74381 12.1237 7.73256L12.0599 7.71381L12.0149 7.90881L11.9099 7.88256Z" fill="#309E3A"/>
<path d="M12.1125 7.48511L12.0825 7.62761L12.1388 7.64261C12.1763 7.65011 12.2063 7.65761 12.2213 7.65386C12.2359 7.65183 12.2495 7.64534 12.2602 7.63526C12.2709 7.62519 12.2783 7.61203 12.2813 7.59761C12.2813 7.57886 12.2813 7.56386 12.2738 7.54886C12.2655 7.53361 12.2523 7.52169 12.2363 7.51511L12.165 7.49636L12.1163 7.48511H12.1125Z" fill="white"/>
<path d="M12.3975 8.02869L12.5737 7.53369L12.78 7.60869C12.8362 7.62744 12.87 7.64619 12.8925 7.66119C12.9112 7.67994 12.9262 7.69869 12.93 7.72869C12.9337 7.75869 12.9375 7.78494 12.93 7.81494C12.915 7.85244 12.8925 7.87869 12.8625 7.89744C12.8325 7.91244 12.795 7.91619 12.75 7.90869C12.765 7.92744 12.78 7.94619 12.7875 7.96869L12.8175 8.06994L12.84 8.18619L12.7237 8.14494L12.6862 8.00994C12.6794 7.97941 12.6706 7.94935 12.66 7.91994C12.655 7.90828 12.6473 7.89798 12.6375 7.88994C12.63 7.87869 12.615 7.87119 12.5887 7.86369L12.57 7.85619L12.495 8.06619L12.3975 8.02869Z" fill="#309E3A"/>
<path d="M12.5999 7.77756L12.6712 7.80381C12.7199 7.82256 12.7499 7.83006 12.7649 7.83006C12.7762 7.83006 12.7874 7.83006 12.7987 7.81881C12.8099 7.81131 12.8174 7.80006 12.8212 7.78506C12.8287 7.77006 12.8287 7.75506 12.8212 7.74006C12.8156 7.72552 12.805 7.71352 12.7912 7.70631L12.7162 7.68006L12.6412 7.65381L12.5962 7.77756H12.5999Z" fill="white"/>
<path d="M13.0125 8.01012C13.0254 7.96621 13.0471 7.92538 13.0762 7.89012C13.0952 7.86749 13.1181 7.84844 13.1437 7.83387C13.167 7.82074 13.1924 7.81185 13.2187 7.80762C13.2562 7.80762 13.2937 7.80762 13.335 7.82262C13.3685 7.83091 13.3999 7.84623 13.427 7.86757C13.4542 7.8889 13.4765 7.91576 13.4925 7.94637C13.5225 8.00637 13.5225 8.07762 13.5 8.16012C13.4814 8.23099 13.4356 8.29165 13.3725 8.32887C13.3162 8.36262 13.2487 8.36637 13.1775 8.34387C13.1441 8.33535 13.1128 8.31995 13.0857 8.29864C13.0585 8.27733 13.0362 8.25058 13.02 8.22012C13.005 8.18733 12.9966 8.1519 12.9953 8.11587C12.994 8.07983 12.9998 8.04389 13.0125 8.01012Z" fill="#309E3A"/>
<path d="M13.1174 8.04001C13.1024 8.09626 13.0987 8.14501 13.1174 8.18251C13.1362 8.22001 13.1624 8.24251 13.2037 8.25751C13.2412 8.26876 13.2787 8.26501 13.3162 8.24251C13.3537 8.22376 13.3762 8.18251 13.3949 8.12251C13.4137 8.06626 13.4137 8.02126 13.3949 7.98376C13.3875 7.96597 13.3763 7.95002 13.362 7.93706C13.3478 7.9241 13.3308 7.91444 13.3124 7.90876C13.294 7.90239 13.2744 7.90009 13.2549 7.90204C13.2355 7.90398 13.2168 7.91011 13.1999 7.92001C13.1624 7.94251 13.1362 7.98001 13.1174 8.04001Z" fill="white"/>
<path d="M14.0361 8.74137L14.2761 8.27637L14.4749 8.37762C14.5123 8.39559 14.5466 8.41967 14.5761 8.44887C14.5949 8.46762 14.6061 8.49012 14.6061 8.52012C14.6061 8.55012 14.6061 8.57637 14.5911 8.60262C14.5767 8.63634 14.5499 8.6632 14.5161 8.67762C14.4786 8.68512 14.4411 8.68512 14.3999 8.67012C14.4149 8.69262 14.4224 8.71512 14.4299 8.73387C14.4374 8.75637 14.4411 8.79012 14.4449 8.83887L14.4524 8.95887L14.3399 8.90262L14.3249 8.76387C14.3231 8.73241 14.3193 8.7011 14.3136 8.67012C14.3111 8.65609 14.3046 8.64308 14.2949 8.63262L14.2499 8.60637L14.2311 8.59512L14.1299 8.79012L14.0361 8.74137Z" fill="#309E3A"/>
<path d="M14.2686 8.52015L14.3398 8.55765C14.3848 8.58015 14.4148 8.59515 14.4261 8.59515C14.4373 8.59515 14.4523 8.59515 14.4636 8.58765C14.4748 8.5839 14.4823 8.57265 14.4898 8.55765C14.4973 8.54265 14.5011 8.52765 14.4973 8.51265C14.4927 8.49772 14.4835 8.48461 14.4711 8.47515C14.4491 8.46167 14.4266 8.44916 14.4036 8.43765L14.3286 8.40015L14.2686 8.52015Z" fill="white"/>
<path d="M15.9788 9.70134C16.0031 9.66278 16.035 9.6296 16.0725 9.60384C16.0978 9.58769 16.1257 9.57625 16.155 9.57009C16.1823 9.56453 16.2103 9.56453 16.2375 9.57009C16.275 9.57759 16.3088 9.59258 16.3425 9.61508C16.3717 9.63326 16.3968 9.65733 16.4162 9.68574C16.4355 9.71414 16.4488 9.74628 16.455 9.78008C16.4663 9.84383 16.4475 9.91508 16.4025 9.98633C16.3649 10.0483 16.3042 10.0928 16.2338 10.1101C16.2002 10.1173 16.1655 10.1174 16.1319 10.1103C16.0983 10.1032 16.0665 10.0891 16.0388 10.0688C16.0096 10.0507 15.9845 10.0266 15.9652 9.99819C15.9458 9.96978 15.9325 9.93764 15.9263 9.90384C15.915 9.83634 15.9338 9.76884 15.9788 9.70134Z" fill="#309E3A"/>
<path d="M16.0725 9.76126C16.035 9.81001 16.0237 9.85501 16.0312 9.89626C16.034 9.91526 16.0408 9.93344 16.0511 9.94961C16.0615 9.96578 16.0752 9.97955 16.0912 9.99001C16.1287 10.0163 16.1662 10.0238 16.2037 10.0125C16.2412 10.0013 16.2787 9.97501 16.3125 9.92251C16.3462 9.87001 16.3612 9.82501 16.3537 9.78751C16.35 9.75001 16.3275 9.71626 16.2937 9.69001C16.26 9.66376 16.2187 9.66001 16.1812 9.67126C16.1437 9.67876 16.1062 9.70876 16.0687 9.76126H16.0725Z" fill="white"/>
<path d="M11.3174 7.66877L11.4036 7.30127L11.6736 7.36502L11.6624 7.42502L11.4636 7.38002L11.4449 7.46252L11.6286 7.50377L11.6136 7.56752L11.4299 7.52252L11.4074 7.62377L11.6136 7.67252L11.5986 7.73252L11.3174 7.66877Z" fill="#309E3A"/>
</g>
<defs>
<clipPath id="clip0_155_7044">
<rect width="24" height="18" fill="white"/>
</clipPath>
</defs>
</svg>
