<svg width="90" height="90" viewBox="0 0 90 90" fill="none" xmlns="http://www.w3.org/2000/svg">
<circle cx="45.0982" cy="44.8652" r="44.3497" stroke="#242A41"/>
<path d="M28.9592 33.8184C31.7385 33.8184 33.9916 31.5654 33.9916 28.7861C33.9916 26.0068 31.7385 23.7537 28.9592 23.7537C26.1799 23.7537 23.9268 26.0068 23.9268 28.7861C23.9268 31.5654 26.1799 33.8184 28.9592 33.8184Z" fill="#242A41"/>
<path d="M38.7433 37.6318V65.5513H47.412V51.7445C47.412 48.1014 48.0974 44.5732 52.6145 44.5732C57.0696 44.5732 57.1248 48.7385 57.1248 51.9745V65.5537H65.7981V50.2426C65.7981 42.7217 64.1789 36.9418 55.3883 36.9418C51.1679 36.9418 48.3389 39.2579 47.182 41.4498H47.0647V37.6318H38.7433ZM24.6168 37.6318H33.2993V65.5513H24.6168V37.6318Z" fill="#242A41"/>
</svg>
