<svg width="91" height="90" viewBox="0 0 91 90" fill="none" xmlns="http://www.w3.org/2000/svg">
<circle cx="45.497" cy="44.8652" r="44.3497" stroke="#242A41"/>
<path fill-rule="evenodd" clip-rule="evenodd" d="M64.9869 24.9923C62.4444 22.4486 59.424 20.433 56.0994 19.0613C52.7748 17.6897 49.2118 16.9892 45.6154 17.0001C30.5223 17.0001 18.2357 29.2253 18.2296 44.2545C18.2229 49.0402 19.4844 53.7421 21.8856 57.8817L18 72L32.5173 68.2102C36.5357 70.3871 41.0341 71.5265 45.6043 71.5249H45.6154C60.7072 71.5249 72.9925 59.2985 72.9999 44.2705C73.0091 40.6864 72.3053 37.1362 70.9297 33.8266C69.554 30.5169 67.5339 27.5139 64.9869 24.9923V24.9923ZM45.6154 66.9248H45.6055C41.5313 66.926 37.5312 65.8357 34.0212 63.7672L33.19 63.2761L24.5754 65.5252L26.8749 57.166L26.3335 56.3066C24.0554 52.6999 22.8484 48.5204 22.853 44.2545C22.853 31.7654 33.0685 21.6039 45.624 21.6039C51.6469 21.5932 57.4275 23.9752 61.6944 28.2261C65.9612 32.4771 68.3648 38.2488 68.3765 44.2717C68.3716 56.7621 58.161 66.9248 45.6154 66.9248ZM58.0996 49.9595C57.4158 49.6182 54.0483 47.9707 53.4246 47.7436C52.8009 47.5165 52.3406 47.4023 51.8851 48.0849C51.4296 48.7675 50.1172 50.2947 49.7183 50.7551C49.3193 51.2155 48.9203 51.2658 48.2364 50.9245C47.5526 50.5832 45.3465 49.865 42.7328 47.5447C40.6985 45.7388 39.326 43.5093 38.927 42.828C38.528 42.1466 38.884 41.7771 39.2265 41.4382C39.5347 41.1325 39.9103 40.6427 40.2529 40.2449C40.5954 39.8472 40.7096 39.5624 40.9367 39.1081C41.1638 38.6539 41.0509 38.2561 40.8802 37.916C40.7096 37.576 39.3407 34.2232 38.7711 32.8592C38.2149 31.5309 37.6514 31.7114 37.2316 31.6905C36.8326 31.6709 36.3722 31.6659 35.9192 31.6659C35.5729 31.675 35.2321 31.7553 34.9182 31.9019C34.6043 32.0485 34.324 32.2582 34.0948 32.5179C33.4675 33.2005 31.6996 34.8505 31.6996 38.1996C31.6996 41.5487 34.155 44.7898 34.4938 45.244C34.8327 45.6983 39.3186 52.5769 46.1825 55.527C47.4571 56.0729 48.7594 56.5515 50.0841 56.961C51.723 57.4791 53.2147 57.4066 54.3932 57.2311C55.7081 57.0359 58.4446 55.5835 59.013 53.9925C59.5814 52.4014 59.5826 51.0387 59.412 50.7551C59.2413 50.4715 58.7846 50.2996 58.0996 49.9595Z" fill="#242A41"/>
</svg>
