<svg width="91" height="90" viewBox="0 0 91 90" fill="none" xmlns="http://www.w3.org/2000/svg">
<circle cx="45.7976" cy="44.8652" r="44.3497" stroke="white"/>
<path d="M46.5 17C31.3136 17 19 29.6328 19 45.1998C19 57.6607 26.8817 68.2187 37.808 71.9509C37.9613 71.9842 38.1177 72.0006 38.2746 72C39.2935 72 39.6864 71.2511 39.6864 70.6004C39.6864 69.9252 39.6618 68.1573 39.6496 65.8002C38.7399 66.0135 37.8093 66.1246 36.875 66.1317C31.5837 66.1317 30.3806 62.019 30.3806 62.019C29.1283 58.7656 27.3237 57.894 27.3237 57.894C24.9297 56.212 27.3114 56.1629 27.4955 56.1629H27.5078C30.2701 56.4085 31.7188 59.0848 31.7188 59.0848C33.0938 61.4911 34.9353 62.1663 36.5804 62.1663C37.6681 62.1445 38.7391 61.8935 39.7232 61.4297C39.9688 59.6127 40.6808 58.3728 41.4665 57.6607C35.365 56.9486 28.9442 54.5301 28.9442 43.7265C28.9442 40.6451 30.0123 38.1283 31.7679 36.1641C31.4855 35.452 30.5402 32.5792 32.0379 28.6998C32.2389 28.6517 32.4453 28.631 32.6518 28.6384C33.6462 28.6384 35.8929 29.019 39.6004 31.5971C44.1055 30.3366 48.87 30.3366 53.375 31.5971C57.0826 29.019 59.3292 28.6384 60.3237 28.6384C60.5301 28.631 60.7366 28.6517 60.9375 28.6998C62.4353 32.5792 61.49 35.452 61.2076 36.1641C62.9632 38.1406 64.0312 40.6574 64.0312 43.7265C64.0312 54.5547 57.5982 56.9364 51.4721 57.6361C52.4542 58.5078 53.3382 60.2265 53.3382 62.8538C53.3382 66.6227 53.3013 69.6674 53.3013 70.5881C53.3013 71.2511 53.6819 72 54.7009 72C54.8658 72.0007 55.0304 71.9842 55.192 71.9509C66.1306 68.2187 74 57.6484 74 45.1998C74 29.6328 61.6864 17 46.5 17Z" fill="white"/>
</svg>
