<svg width="90" height="90" viewBox="0 0 90 90" fill="none" xmlns="http://www.w3.org/2000/svg">
<circle cx="45.0981" cy="44.8652" r="44.3497" stroke="white"/>
<path d="M28.9591 33.8184C31.7384 33.8184 33.9915 31.5654 33.9915 28.7861C33.9915 26.0068 31.7384 23.7537 28.9591 23.7537C26.1798 23.7537 23.9268 26.0068 23.9268 28.7861C23.9268 31.5654 26.1798 33.8184 28.9591 33.8184Z" fill="white"/>
<path d="M38.7432 37.6318V65.5514H47.4119V51.7445C47.4119 48.1014 48.0972 44.5732 52.6144 44.5732C57.0695 44.5732 57.1247 48.7385 57.1247 51.9745V65.5537H65.7979V50.2426C65.7979 42.7217 64.1787 36.9418 55.3882 36.9418C51.1677 36.9418 48.3387 39.2579 47.1819 41.4498H47.0646V37.6318H38.7432V37.6318ZM24.6167 37.6318H33.2991V65.5514H24.6167V37.6318Z" fill="white"/>
</svg>
